<?xml version="1.0"?>
<svg xmlns:rdf="http://www.w3.org/1999/02/22-rdf-syntax-ns#" xmlns="http://www.w3.org/2000/svg" xmlns:cc="http://web.resource.org/cc/" xmlns:xlink="http://www.w3.org/1999/xlink" xmlns:dc="http://purl.org/dc/elements/1.1/" id="svg2" viewBox="0 0 399.12 1055.6" version="1.0">
  <g id="layer1" transform="translate(-174.31 1.629)">
    <g id="g2172" transform="translate(2.3301 13.819)">
      <path id="path2236" stroke="#839ee7" stroke-width="5.5" fill="none" d="m398.06 54.726c0 16.821 4.13 18.523 16.29 23.463 3.85 1.564 5.66 6.046 4.91 23.691 114.04 95.73 119.56 182.98 106.91 246.55-12.58 63.22-16.04 25.59-17.72 95.87-0.22 136.26 3.01 155.53 3.7 212.56 8.07 8.46 34.99 166.27 39.59 194.56 15.44 94.93-5.86 129.91-11.53 140.41-40.6 43.27-35.86 40.87-114.47-27.36"/>
      <use id="use3297" xlink:href="#path2236" transform="matrix(-1 0 0 1 739.43 3.8281e-7)" height="1052.3622" width="744.09448" y="0" x="0" fill="#839ee7"/>
      <path id="path3352" fill="#2456e4" d="m329-7.6378c30.42 0.2487 55 0.4557 85.14 5.2385-0.06 17.611 2.41 40.385 2.35 57.997-18.2-3.312-36.72-2.468-56.43-3.583-11.36-0.297-22.82-0.194-34.02 2.379 0.32-20.677 2.65-41.354 2.96-62.032z"/>
      <path id="path3413" fill="#24b7e4" d="m514.35 637.06l-289.67-0.21 2.52-224.46 284.67 1.64 2.48 223.03z"/>
      <rect id="rect3694" height="7.8025" width="262.02" y="429.92" x="239.13" fill="#fff"/>
      <use id="use3696" xlink:href="#rect3694" transform="translate(.0000044183 187.89)" height="1052.3622" width="744.09448" y="0" x="0"/>
      <path id="path3718" stroke="#000" stroke-width="1px" fill="none" d="m276.1 849.92z"/>
      <path id="path3731" stroke-width="5.5" stroke="#4c47aa" fill-opacity="0" d="m251.25 934.21c11.37-34.79 25.09-62.58 41.67-38.89 16.67 23.8 41.16 134.08 41.16 134.08m1.35 0.2l68.17-0.3 36.15-97.49c10.64-35.41 29.16-61.11 41.5-1.72"/>
    </g>
  </g>
  <metadata>
    <rdf:RDF>
      <cc:Work>
        <dc:format>image/svg+xml</dc:format>
        <dc:type rdf:resource="http://purl.org/dc/dcmitype/StillImage"/>
        <cc:license rdf:resource="http://creativecommons.org/licenses/publicdomain/"/>
        <dc:publisher>
          <cc:Agent rdf:about="http://openclipart.org/">
            <dc:title>Openclipart</dc:title>
          </cc:Agent>
        </dc:publisher>
      </cc:Work>
      <cc:License rdf:about="http://creativecommons.org/licenses/publicdomain/">
        <cc:permits rdf:resource="http://creativecommons.org/ns#Reproduction"/>
        <cc:permits rdf:resource="http://creativecommons.org/ns#Distribution"/>
        <cc:permits rdf:resource="http://creativecommons.org/ns#DerivativeWorks"/>
      </cc:License>
    </rdf:RDF>
  </metadata>
</svg>
